<svg xmlns="http://www.w3.org/2000/svg" width="36" height="10" fill="none"><path fill="#fff" d="M3.715 9.146c-1.94 0-3.217-.914-3.317-2.431l-.005-.088H1.84l.012.07c.11.727.855 1.178 1.916 1.178 1.066 0 1.734-.475 1.734-1.201v-.006c0-.633-.44-.973-1.53-1.201l-.908-.188C1.4 4.934.58 4.16.58 2.9v-.005C.586 1.406 1.893.398 3.715.398c1.846 0 3.053.973 3.14 2.42l.006.1H5.414l-.012-.07c-.1-.739-.75-1.178-1.699-1.178-.99.006-1.605.469-1.605 1.143v.005c0 .598.463.95 1.482 1.16l.914.188c1.758.363 2.526 1.078 2.526 2.396v.006c0 1.577-1.243 2.578-3.305 2.578Zm8.162 0c-2.473 0-4.014-1.681-4.014-4.37v-.012c0-2.684 1.553-4.366 4.014-4.366 2.467 0 4.008 1.682 4.008 4.366v.011c0 2.69-1.535 4.371-4.008 4.371Zm0-1.312c1.53 0 2.473-1.195 2.473-3.059v-.011c0-1.875-.961-3.053-2.473-3.053-1.506 0-2.473 1.172-2.473 3.053v.011c0 1.881.961 3.059 2.473 3.059ZM17.092 9V.545h1.36l4.118 5.924h.035V.545h1.5V9h-1.347l-4.131-5.947h-.03V9h-1.505ZM25.6 9V.545h1.511V9H25.6Zm6.68.146c-2.432 0-3.968-1.675-3.968-4.376v-.006c0-2.702 1.541-4.366 3.967-4.366 1.946 0 3.375 1.213 3.598 2.936l.006.059H34.4l-.029-.112c-.246-.967-.99-1.57-2.092-1.57-1.476 0-2.42 1.178-2.42 3.053v.006c0 1.88.95 3.064 2.42 3.064 1.078 0 1.834-.58 2.11-1.623l.017-.059h1.483l-.012.059c-.217 1.734-1.652 2.935-3.598 2.935Z"/></svg>